<svg width="64" height="18" viewBox="0 0 64 18" fill="none" xmlns="http://www.w3.org/2000/svg">
<path d="M0.0972404 1.33157C0.0972404 1.20995 0.154251 1.13013 0.268272 1.09213C0.389895 1.04652 0.515318 1.02371 0.644543 1.02371H1.53391C1.60992 1.01611 1.75435 1.00851 1.96719 1.00091C2.18763 0.993308 2.41567 0.985706 2.65132 0.978105C2.89456 0.962902 3.12261 0.9515 3.33545 0.943899C3.55589 0.936297 3.71172 0.928696 3.80293 0.921094C3.81814 0.936297 3.87135 0.955301 3.96256 0.978105C4.05378 0.993308 4.11839 1.00851 4.1564 1.02371H4.21341C4.31223 1.02371 4.39964 0.997109 4.47566 0.943899C4.55927 0.890689 4.64289 0.864084 4.7265 0.864084C4.74171 0.848881 4.78732 0.841279 4.86333 0.841279C4.92414 0.841279 4.98875 0.84508 5.05717 0.852682C5.12558 0.860283 5.16739 0.864084 5.18259 0.864084C5.2434 0.848881 5.33842 0.833678 5.46764 0.818475C5.60447 0.795671 5.74129 0.772867 5.87812 0.750062C6.02255 0.727258 6.15177 0.708255 6.26579 0.693052C6.38741 0.677849 6.46723 0.666447 6.50524 0.658845C6.51284 0.658845 6.53564 0.651244 6.57365 0.636041C6.61926 0.620838 6.66487 0.605635 6.71048 0.590433C6.76369 0.567628 6.80929 0.548625 6.8473 0.533422C6.89291 0.510618 6.92332 0.495415 6.93852 0.487813C6.96892 0.472611 7.02973 0.453607 7.12095 0.430803C7.21217 0.400397 7.26158 0.385194 7.26918 0.385194H7.85069H8.42079C8.51961 0.423201 8.57662 0.484013 8.59183 0.567628C8.60703 0.651244 8.61463 0.731059 8.61463 0.807073C8.61463 0.837479 8.61083 0.879287 8.60323 0.932496C8.59563 0.978105 8.59183 1.00851 8.59183 1.02371C8.59183 1.03892 8.57662 1.06552 8.54622 1.10353C8.51581 1.13393 8.48161 1.16814 8.4436 1.20615C8.40559 1.23655 8.36758 1.26696 8.32958 1.29736C8.29917 1.32017 8.27637 1.33157 8.26116 1.33157C8.20035 1.35438 8.10154 1.37718 7.96471 1.39998C7.82788 1.42279 7.68346 1.44559 7.53143 1.4684C7.387 1.4836 7.24638 1.4988 7.10955 1.51401C6.98033 1.52921 6.88911 1.53681 6.8359 1.53681C6.8283 1.53681 6.80929 1.54061 6.77889 1.54821C6.74848 1.54821 6.71048 1.54821 6.66487 1.54821C6.57365 1.54821 6.47103 1.54821 6.35701 1.54821C6.25059 1.54061 6.18218 1.53681 6.15177 1.53681C6.04535 1.54441 5.92753 1.56341 5.7983 1.59382C5.67668 1.61662 5.58166 1.68124 5.51325 1.78766C5.51325 1.82566 5.50565 1.89028 5.49045 1.98149C5.47524 2.07271 5.46004 2.17153 5.44484 2.27795C5.42964 2.37677 5.41063 2.47558 5.38783 2.5744C5.37263 2.66562 5.36502 2.72643 5.36502 2.75684C5.36502 2.77204 5.35362 2.81765 5.33082 2.89366C5.30801 2.96208 5.29661 3.00008 5.29661 3.00768C5.28901 3.03049 5.28141 3.05709 5.27381 3.0875C5.26621 3.1179 5.2624 3.15971 5.2624 3.21292C5.2624 3.38775 5.27761 3.55499 5.30801 3.71462C5.34602 3.87425 5.36502 4.05288 5.36502 4.25052C5.36502 4.53177 5.35362 4.80542 5.33082 5.07147C5.30801 5.32992 5.29661 5.59597 5.29661 5.86962C5.29661 5.88482 5.30041 5.91143 5.30801 5.94943C5.31561 5.97984 5.32322 6.01785 5.33082 6.06345C5.33842 6.10906 5.34602 6.15087 5.35362 6.18888C5.36122 6.22689 5.36502 6.25349 5.36502 6.26869C5.36502 6.2839 5.36502 6.3295 5.36502 6.40552C5.37263 6.47393 5.37643 6.55375 5.37643 6.64496C5.37643 6.73618 5.37643 6.835 5.37643 6.94142C5.37643 7.04784 5.37263 7.15046 5.36502 7.24928C5.36502 7.34809 5.36502 7.43551 5.36502 7.51153C5.36502 7.58754 5.36502 7.64075 5.36502 7.67115C5.36502 7.67115 5.36882 7.69016 5.37643 7.72817C5.38403 7.75857 5.39163 7.79278 5.39923 7.83078C5.40683 7.86119 5.41443 7.8954 5.42203 7.9334C5.42964 7.96381 5.43344 7.97901 5.43344 7.97901C5.43344 8.00942 5.43724 8.06643 5.44484 8.15004C5.45244 8.23366 5.46004 8.32488 5.46764 8.4237C5.48285 8.51491 5.49425 8.60613 5.50185 8.69735C5.50945 8.78096 5.51325 8.84557 5.51325 8.89118L5.53606 8.93679C5.55126 8.9672 5.55886 8.99 5.55886 9.0052C5.55886 9.47649 5.53606 9.94778 5.49045 10.4191C5.44484 10.8904 5.40303 11.3654 5.36502 11.8443C5.36502 11.8671 5.36882 11.9089 5.37643 11.9698C5.38403 12.023 5.39163 12.0838 5.39923 12.1522C5.40683 12.213 5.41443 12.2738 5.42203 12.3346C5.42964 12.3954 5.43344 12.4372 5.43344 12.46C5.44104 12.5209 5.44864 12.6235 5.45624 12.7679C5.47144 12.9047 5.48285 13.053 5.49045 13.2126C5.49805 13.3722 5.50185 13.5242 5.50185 13.6687C5.50945 13.8055 5.51325 13.9005 5.51325 13.9537C5.52845 13.9765 5.53606 14.0373 5.53606 14.1362C5.53606 14.2274 5.53606 14.3338 5.53606 14.4554C5.53606 14.5694 5.53226 14.6873 5.52465 14.8089C5.52465 14.9305 5.52465 15.0483 5.52465 15.1624C5.52465 15.2688 5.52085 15.3638 5.51325 15.4474C5.51325 15.5234 5.51325 15.5728 5.51325 15.5956C5.52085 15.6336 5.52845 15.6869 5.53606 15.7553C5.55126 15.8237 5.56646 15.8921 5.58166 15.9605C5.59687 16.0289 5.61967 16.0935 5.65008 16.1543C5.68808 16.2075 5.73749 16.2456 5.7983 16.2684C5.82871 16.2684 5.88952 16.2722 5.98074 16.2798C6.07196 16.2874 6.16697 16.295 6.26579 16.3026C6.37221 16.3026 6.47103 16.3064 6.56225 16.314C6.65346 16.3216 6.71428 16.3254 6.74468 16.3254C6.77509 16.3254 6.8245 16.333 6.89291 16.3482C6.96132 16.3634 7.00313 16.3748 7.01833 16.3824C7.10195 16.3824 7.24638 16.3824 7.45161 16.3824C7.66445 16.3748 7.9001 16.371 8.15855 16.371C8.40179 16.371 8.62983 16.3748 8.84267 16.3824C9.05551 16.3824 9.20374 16.3824 9.28736 16.3824C9.29496 16.3824 9.32156 16.3862 9.36717 16.3938C9.42038 16.4014 9.47739 16.4128 9.5382 16.428C9.59901 16.4356 9.65603 16.447 9.70924 16.4622C9.77005 16.4698 9.80805 16.4774 9.82326 16.485C10.1501 16.5002 10.4884 16.5306 10.838 16.5762C11.1953 16.6218 11.545 16.6446 11.887 16.6446C11.9859 16.6446 12.0619 16.6408 12.1151 16.6332C12.1759 16.618 12.2595 16.5952 12.3659 16.5648C12.5408 16.4736 12.7118 16.3824 12.879 16.2912C13.0463 16.1923 13.2173 16.0973 13.3921 16.0061C13.4377 15.9529 13.4795 15.9111 13.5175 15.8807C13.5556 15.8503 13.5936 15.8237 13.6316 15.8009C13.6696 15.7781 13.7076 15.7515 13.7456 15.7211C13.7912 15.6907 13.8444 15.6488 13.9052 15.5956C14.1257 15.4056 14.3195 15.1928 14.4867 14.9571C14.6616 14.7215 14.8288 14.482 14.9884 14.2388C15.1481 13.9879 15.3077 13.7409 15.4673 13.4976C15.6269 13.2468 15.8094 13.0188 16.0146 12.8135C16.0146 12.7983 16.0336 12.7907 16.0716 12.7907H16.083C16.083 12.7907 16.0982 12.7983 16.1286 12.8135L16.1514 12.8819C16.159 12.8971 16.1666 12.9123 16.1742 12.9275C16.1818 12.9427 16.1856 12.9579 16.1856 12.9731C16.1932 12.9959 16.2046 13.053 16.2199 13.1442C16.2351 13.2278 16.2503 13.3228 16.2655 13.4292C16.2807 13.5356 16.2959 13.6383 16.3111 13.7371C16.3263 13.8359 16.3377 13.9081 16.3453 13.9537V14.0221V14.1134C16.3453 14.1514 16.3377 14.2388 16.3225 14.3756C16.3073 14.5048 16.2883 14.6493 16.2655 14.8089C16.2503 14.9685 16.2351 15.1205 16.2199 15.265C16.2046 15.4018 16.1932 15.493 16.1856 15.5386C16.1856 15.5614 16.1818 15.6222 16.1742 15.7211C16.1666 15.8199 16.159 15.9301 16.1514 16.0517C16.1514 16.1657 16.1476 16.276 16.14 16.3824C16.1324 16.4812 16.1286 16.542 16.1286 16.5648C16.0906 16.8081 16.0184 17.0019 15.912 17.1463C15.8056 17.2831 15.6421 17.3516 15.4217 17.3516C15.3533 17.3364 15.2317 17.3288 15.0568 17.3288C14.882 17.3288 14.6958 17.3288 14.4981 17.3288C14.3005 17.3288 14.1143 17.3288 13.9394 17.3288C13.7646 17.3288 13.6468 17.3364 13.586 17.3516C13.5708 17.3516 13.5404 17.3516 13.4947 17.3516C13.4567 17.3592 13.4111 17.3668 13.3579 17.3744C13.3047 17.382 13.2553 17.3858 13.2097 17.3858C13.1717 17.3934 13.1451 17.401 13.1299 17.4086H10.781C10.7278 17.4162 10.591 17.4238 10.3706 17.4314C10.1577 17.4466 9.92968 17.458 9.68643 17.4656C9.44319 17.4808 9.21134 17.4922 8.9909 17.4998C8.77806 17.5074 8.64504 17.5112 8.59183 17.5112H8.55762H8.50061C8.455 17.5036 8.33718 17.4922 8.14714 17.477C7.96471 17.4618 7.76327 17.4428 7.54283 17.42C7.32999 17.4048 7.13235 17.3896 6.94992 17.3744C6.76749 17.3592 6.65346 17.3516 6.60786 17.3516H5.7983C5.7831 17.3516 5.73749 17.344 5.66148 17.3288C5.58547 17.306 5.53606 17.2946 5.51325 17.2946C5.51325 17.2946 5.49425 17.2984 5.45624 17.306C5.42584 17.3136 5.39163 17.3212 5.35362 17.3288C5.31561 17.3288 5.27761 17.3326 5.2396 17.3402C5.20919 17.3478 5.19019 17.3516 5.18259 17.3516H4.64669C4.05378 17.3668 3.45707 17.3972 2.85656 17.4428C2.26364 17.4884 1.66313 17.5112 1.05502 17.5112H0.507717C0.492514 17.5112 0.473511 17.5074 0.450706 17.4998C0.435504 17.4922 0.393696 17.4618 0.325283 17.4086C0.31008 17.3934 0.294877 17.3592 0.279674 17.306C0.272073 17.2527 0.268272 17.2033 0.268272 17.1577C0.268272 17.0741 0.283475 17.0019 0.313881 16.9411C0.351888 16.8727 0.401297 16.8309 0.462109 16.8157C0.477311 16.8081 0.507717 16.7929 0.553326 16.7701C0.598934 16.7396 0.62934 16.7168 0.644543 16.7016C0.796571 16.6332 0.975204 16.599 1.18044 16.599C1.39328 16.599 1.60612 16.5952 1.81896 16.5876C2.0318 16.5724 2.22944 16.5382 2.41187 16.485C2.59431 16.4242 2.73493 16.3064 2.83375 16.1315C2.84135 16.1011 2.84895 16.0441 2.85656 15.9605C2.86416 15.8693 2.87176 15.7781 2.87936 15.6869C2.88696 15.588 2.89456 15.5006 2.90216 15.4246C2.90977 15.341 2.91357 15.2878 2.91357 15.265C2.91357 15.2422 2.89836 15.1928 2.86796 15.1167C2.84515 15.0331 2.83375 14.9837 2.83375 14.9685V14.3756L2.79955 14.1134C2.79194 14.0982 2.78814 14.083 2.78814 14.0677C2.78054 14.0525 2.77674 14.0373 2.77674 14.0221C2.77674 13.9005 2.78434 13.7979 2.79955 13.7143C2.82235 13.6307 2.83375 13.5356 2.83375 13.4292V13.2468C2.83375 13.2164 2.82615 13.167 2.81095 13.0986C2.80335 13.0302 2.79955 12.9883 2.79955 12.9731C2.79955 12.9503 2.80335 12.8933 2.81095 12.8021C2.82615 12.7109 2.83375 12.6501 2.83375 12.6197V11.8443C2.83375 11.8063 2.84895 11.7379 2.87936 11.6391C2.90977 11.5403 2.92117 11.4719 2.91357 11.4339C2.89836 11.3959 2.88316 11.2894 2.86796 11.1146C2.86036 10.9398 2.84895 10.6585 2.83375 10.2708V9.48409C2.84895 9.09642 2.86036 8.81897 2.86796 8.65174C2.88316 8.48451 2.89836 8.38569 2.91357 8.35528V8.29827C2.91357 8.00942 2.89836 7.72056 2.86796 7.43171C2.84515 7.14286 2.83375 6.854 2.83375 6.56515C2.83375 6.51194 2.82995 6.45873 2.82235 6.40552C2.81475 6.35231 2.81095 6.2991 2.81095 6.24589C2.81095 6.17748 2.82615 6.08246 2.85656 5.96084C2.89456 5.83161 2.91357 5.68338 2.91357 5.51615C2.91357 5.32612 2.90977 5.13228 2.90216 4.93464C2.89456 4.72941 2.89076 4.52797 2.89076 4.33033C2.89076 4.1555 2.89456 3.98447 2.90216 3.81724C2.90977 3.6424 2.91357 3.46757 2.91357 3.29274C2.87556 3.20912 2.84895 3.1103 2.83375 2.99628C2.82615 2.88226 2.81475 2.77204 2.79955 2.66562C2.79194 2.5516 2.77674 2.44898 2.75394 2.35776C2.73873 2.25894 2.70073 2.18673 2.63992 2.14112C2.5335 2.05751 2.37767 2.0043 2.17243 1.98149C1.97479 1.95109 1.75435 1.92448 1.5111 1.90168C1.30587 1.88647 1.09683 1.87507 0.883987 1.86747C0.678749 1.85227 0.507717 1.81426 0.370891 1.75345C0.188457 1.68504 0.0972404 1.54441 0.0972404 1.33157ZM17.4627 17.0551C17.4627 16.9259 17.5159 16.8271 17.6223 16.7587C17.7287 16.6826 17.8466 16.6446 17.9758 16.6446C18.0062 16.6446 18.0442 16.6484 18.0898 16.656C18.1354 16.656 18.1696 16.656 18.1924 16.656H18.4319C18.4395 16.656 18.4737 16.656 18.5345 16.656C18.6029 16.6484 18.6523 16.637 18.6827 16.6218C18.6979 16.6066 18.7283 16.5952 18.7739 16.5876C18.8271 16.5724 18.8613 16.5648 18.8765 16.5648H18.9222H18.9564L19.2528 16.599C19.344 16.599 19.3972 16.5914 19.4124 16.5762C19.4276 16.561 19.4619 16.523 19.5151 16.4622C19.5455 16.4242 19.5683 16.3862 19.5835 16.3482C19.6063 16.3026 19.6367 16.2608 19.6747 16.2228V15.6983C19.6747 15.4778 19.6633 15.2688 19.6405 15.0711C19.6177 14.8659 19.6063 14.6531 19.6063 14.4326C19.6063 14.2578 19.6139 14.1286 19.6291 14.0449C19.6443 13.9537 19.6519 13.8397 19.6519 13.7029V13.6231C19.6519 13.5927 19.6519 13.5433 19.6519 13.4748C19.6519 13.4064 19.6481 13.3114 19.6405 13.1898C19.6329 13.0606 19.6215 12.8971 19.6063 12.6995C19.5911 12.5019 19.5721 12.2586 19.5493 11.9698C19.5721 11.8633 19.5873 11.7721 19.5949 11.6961C19.6025 11.6125 19.6063 11.5175 19.6063 11.4111V11.1146C19.6063 11.107 19.6025 11.0842 19.5949 11.0462C19.5873 11.0082 19.5797 10.9664 19.5721 10.9208C19.5721 10.8752 19.5683 10.8371 19.5607 10.8067C19.5531 10.7687 19.5493 10.7459 19.5493 10.7383V10.0086C19.5493 9.95538 19.5455 9.84136 19.5379 9.66653C19.5303 9.48409 19.5189 9.29026 19.5037 9.08502C19.4961 8.87978 19.4885 8.68975 19.4809 8.51491C19.4733 8.33248 19.4695 8.20705 19.4695 8.13864C19.4543 8.05503 19.4086 7.97141 19.3326 7.8878C19.2566 7.80418 19.1844 7.73577 19.116 7.68256C19.04 7.62935 18.983 7.60274 18.945 7.60274C18.9222 7.60274 18.8994 7.60654 18.8765 7.61414C18.8537 7.62175 18.8233 7.62555 18.7853 7.62555H18.6827C18.6675 7.61034 18.6257 7.59134 18.5573 7.56854C18.4889 7.53813 18.4471 7.52293 18.4319 7.52293C18.4091 7.51533 18.3482 7.50392 18.2494 7.48872C18.1582 7.46592 18.0594 7.44691 17.953 7.43171C17.8466 7.41651 17.7439 7.4013 17.6451 7.3861C17.5539 7.3709 17.4969 7.3595 17.4741 7.3519C17.4057 7.33669 17.3449 7.30629 17.2917 7.26068C17.246 7.20747 17.2232 7.13906 17.2232 7.05544C17.2232 6.99463 17.2346 6.91861 17.2574 6.8274C17.2802 6.73618 17.3221 6.67917 17.3829 6.65637C17.4437 6.61836 17.5349 6.59175 17.6565 6.57655C17.7857 6.55375 17.9264 6.53854 18.0784 6.53094C18.2304 6.51574 18.3901 6.50814 18.5573 6.50814C18.7245 6.50814 18.8841 6.50814 19.0362 6.50814C19.0514 6.49293 19.078 6.48533 19.116 6.48533C19.1616 6.48533 19.2072 6.48533 19.2528 6.48533C19.3592 6.48533 19.4733 6.48913 19.5949 6.49674C19.7165 6.50434 19.7925 6.50814 19.8229 6.50814C19.8457 6.50814 19.9027 6.50814 19.994 6.50814C20.0852 6.50054 20.184 6.49674 20.2904 6.49674C20.4044 6.49674 20.5109 6.49674 20.6097 6.49674C20.7085 6.48913 20.7693 6.48533 20.7921 6.48533C20.7997 6.48533 20.8453 6.48153 20.9289 6.47393C21.0201 6.45873 21.1266 6.44733 21.2482 6.43972C21.3698 6.42452 21.499 6.41312 21.6359 6.40552C21.7727 6.39032 21.8943 6.38271 22.0007 6.38271H23.4716C23.54 6.41312 23.6236 6.43972 23.7225 6.46253C23.8289 6.48533 23.9277 6.51194 24.0189 6.54234C24.1177 6.57275 24.1975 6.61456 24.2584 6.66777C24.3268 6.71338 24.361 6.78179 24.361 6.87301C24.361 6.97943 24.3078 7.07444 24.2013 7.15806C24.0949 7.23407 23.9695 7.29869 23.8251 7.3519C23.6806 7.3975 23.5362 7.43551 23.3918 7.46592C23.2474 7.49632 23.1371 7.51533 23.0611 7.52293H22.2744C22.2592 7.52293 22.2174 7.54953 22.149 7.60274C22.0805 7.64835 22.0311 7.67496 22.0007 7.68256C21.8943 7.73577 21.8069 7.78138 21.7385 7.81938C21.6777 7.85739 21.6473 7.9068 21.6473 7.96761V8.18425C21.6473 8.26026 21.6511 8.34388 21.6587 8.4351C21.6663 8.51871 21.7005 8.59093 21.7613 8.65174V9.16483C21.7613 9.62092 21.7309 10.077 21.6701 10.5331C21.6093 10.9816 21.5789 11.4339 21.5789 11.8899C21.5712 11.9127 21.5636 12.004 21.556 12.1636C21.556 12.3232 21.5522 12.5095 21.5446 12.7223C21.5446 12.9275 21.5446 13.1404 21.5446 13.3608C21.5446 13.5813 21.5446 13.7599 21.5446 13.8967C21.5446 13.9651 21.5446 14.0944 21.5446 14.2844C21.5446 14.4668 21.5446 14.6645 21.5446 14.8773C21.5522 15.0901 21.556 15.2916 21.556 15.4816C21.5636 15.664 21.5712 15.7933 21.5789 15.8693C21.556 16.0213 21.5827 16.1429 21.6587 16.2342C21.7423 16.3178 21.8449 16.3862 21.9665 16.4394C22.0957 16.4926 22.2364 16.5344 22.3884 16.5648C22.548 16.5952 22.6925 16.6294 22.8217 16.6674C22.9585 16.6978 23.0725 16.7396 23.1637 16.7929C23.255 16.8461 23.3006 16.9221 23.3006 17.0209C23.3006 17.1197 23.2436 17.2033 23.1295 17.2717C23.0231 17.3326 22.9357 17.3782 22.8673 17.4086C22.8445 17.4238 22.8027 17.4314 22.7419 17.4314C22.6811 17.439 22.6164 17.4428 22.548 17.4428C22.4872 17.4504 22.4302 17.4542 22.377 17.4542C22.3238 17.4542 22.2896 17.4542 22.2744 17.4542C22.2288 17.4542 22.1718 17.4542 22.1033 17.4542C22.0349 17.4542 21.9665 17.4504 21.8981 17.4428C21.8373 17.4428 21.7803 17.439 21.7271 17.4314C21.6815 17.4314 21.6549 17.4238 21.6473 17.4086C21.6397 17.4086 21.6207 17.4048 21.5903 17.3972C21.5598 17.3896 21.5256 17.382 21.4876 17.3744C21.4496 17.3744 21.4116 17.3706 21.3736 17.363C21.3356 17.3554 21.3128 17.3516 21.3052 17.3516H21.2026C21.0886 17.3516 20.9745 17.382 20.8605 17.4428C20.7541 17.5036 20.6477 17.534 20.5413 17.534C20.5185 17.534 20.4614 17.5302 20.3702 17.5226C20.279 17.515 20.184 17.5036 20.0852 17.4884C19.994 17.4732 19.9065 17.458 19.8229 17.4428C19.7393 17.4352 19.6899 17.4238 19.6747 17.4086H19.3782C19.2186 17.4086 19.0666 17.4276 18.9222 17.4656C18.7853 17.5112 18.6333 17.534 18.4661 17.534C18.3977 17.534 18.3064 17.5302 18.1924 17.5226C18.0784 17.515 17.9682 17.496 17.8618 17.4656C17.7553 17.4352 17.6603 17.3896 17.5767 17.3288C17.5007 17.2603 17.4627 17.1691 17.4627 17.0551ZM25.2731 11.4339C25.2883 11.4339 25.3035 11.3997 25.3188 11.3312C25.3416 11.2552 25.3606 11.2096 25.3758 11.1944C25.3758 11.1792 25.3758 11.1488 25.3758 11.1032C25.3834 11.05 25.391 10.9968 25.3986 10.9436C25.4062 10.8828 25.4138 10.8295 25.4214 10.7839C25.429 10.7307 25.4328 10.6965 25.4328 10.6813C25.4404 10.6585 25.4518 10.6281 25.467 10.5901C25.4822 10.5445 25.5012 10.4989 25.524 10.4533C25.5468 10.4077 25.5658 10.3659 25.581 10.3279C25.6038 10.2898 25.6228 10.2632 25.638 10.248C25.6456 10.2328 25.657 10.2176 25.6722 10.2024C25.6874 10.172 25.7026 10.1568 25.7178 10.1568C25.7634 10.0276 25.7938 9.89077 25.809 9.74634C25.8318 9.60192 25.8851 9.48029 25.9687 9.38147C25.9763 9.35867 25.9953 9.32826 26.0257 9.29026C26.0637 9.24465 26.0979 9.19904 26.1283 9.15343C26.1663 9.10782 26.2005 9.06602 26.2309 9.02801C26.2689 8.9824 26.2993 8.94819 26.3221 8.92539C26.3297 8.92539 26.3449 8.91399 26.3677 8.89118C26.3982 8.86838 26.4248 8.84177 26.4476 8.81137C26.478 8.78096 26.5046 8.75436 26.5274 8.73155C26.5578 8.70115 26.5768 8.68214 26.5844 8.67454C26.5844 8.65934 26.592 8.62893 26.6072 8.58333C26.6148 8.56052 26.6262 8.53772 26.6414 8.51491C26.839 8.24126 27.0899 7.99041 27.3939 7.76237C27.698 7.53433 28.0249 7.34049 28.3745 7.18086C28.7318 7.01363 29.0967 6.88441 29.4691 6.79319C29.8416 6.70197 30.1951 6.65637 30.5295 6.65637C30.5903 6.65637 30.6701 6.65637 30.769 6.65637C30.8678 6.65637 30.9248 6.66397 30.94 6.67917L31.1794 6.73618C31.2327 6.75138 31.3201 6.76659 31.4417 6.78179C31.5709 6.78939 31.7039 6.80079 31.8408 6.816C31.9776 6.8236 32.103 6.8312 32.217 6.8388C32.3387 6.8464 32.4185 6.854 32.4565 6.8616C32.6313 6.96042 32.7985 7.02883 32.9582 7.06684C33.1178 7.09725 33.285 7.11245 33.4599 7.11245C33.5663 7.11245 33.6613 7.09345 33.7449 7.05544C33.8361 7.01743 33.9198 6.97562 33.9958 6.93002C34.0794 6.87681 34.163 6.8312 34.2466 6.79319C34.3302 6.75518 34.4176 6.73618 34.5089 6.73618C34.6685 6.73618 34.8015 6.80459 34.9079 6.94142C35.022 7.07824 35.079 7.22267 35.079 7.3747C35.079 7.45832 35.0524 7.53433 34.9992 7.60274C34.9459 7.66355 34.9155 7.76237 34.9079 7.8992V9.02801C34.9079 9.04321 34.8927 9.10022 34.8623 9.19904C34.8395 9.29026 34.8281 9.35107 34.8281 9.38147C34.8129 9.46509 34.8053 9.54871 34.8053 9.63232C34.8053 9.70834 34.7939 9.78055 34.7711 9.84896C34.7559 9.90977 34.7217 9.95918 34.6685 9.99719C34.6153 10.0352 34.5279 10.0542 34.4062 10.0542H34.2922C34.277 10.0314 34.2618 9.97438 34.2466 9.88317C34.239 9.79195 34.2352 9.73494 34.2352 9.71214C34.1516 9.44609 34.0528 9.21804 33.9388 9.02801C33.8323 8.83037 33.6955 8.62133 33.5283 8.40089C33.5283 8.38569 33.5131 8.37049 33.4827 8.35528C33.4599 8.34008 33.4409 8.33248 33.4257 8.33248C33.2508 8.21846 33.095 8.11204 32.9582 8.01322C32.829 7.9144 32.6959 7.82318 32.5591 7.73957C32.4299 7.64835 32.2893 7.56854 32.1372 7.50012C31.9928 7.42411 31.818 7.3557 31.6127 7.29488H31.5671H31.5329C31.4797 7.29488 31.3847 7.30249 31.2479 7.31769C31.1186 7.33289 30.978 7.3519 30.826 7.3747C30.6816 7.3899 30.5409 7.40511 30.4041 7.42031C30.2749 7.42791 30.1837 7.43171 30.1304 7.43171C30.1152 7.44691 30.0848 7.46592 30.0392 7.48872C29.9936 7.51153 29.967 7.53053 29.9594 7.54573C29.9442 7.54573 29.9138 7.56473 29.8682 7.60274C29.8302 7.64075 29.7846 7.68636 29.7314 7.73957C29.6858 7.79278 29.6402 7.84219 29.5945 7.8878C29.5565 7.9334 29.5299 7.96001 29.5147 7.96761C29.5071 7.98281 29.4805 8.00562 29.4349 8.03602C29.3969 8.06643 29.3551 8.09683 29.3095 8.12724C29.2639 8.15004 29.2183 8.17285 29.1727 8.19565C29.1271 8.21846 29.0967 8.23366 29.0815 8.24126C29.0739 8.24126 29.0624 8.26407 29.0472 8.30967C29.032 8.35528 29.0244 8.38569 29.0244 8.40089C29.0168 8.40089 28.9978 8.41609 28.9674 8.4465C28.9446 8.4693 28.9142 8.49591 28.8762 8.52631C28.8458 8.55672 28.8154 8.58713 28.785 8.61753C28.7546 8.64794 28.7356 8.66694 28.728 8.67454C28.7204 8.68975 28.6938 8.73155 28.6482 8.79997C28.6102 8.86838 28.5912 8.91019 28.5912 8.92539C28.5912 8.94819 28.5722 8.9824 28.5342 9.02801C28.5037 9.06602 28.4847 9.08502 28.4771 9.08502C28.4771 9.10782 28.4657 9.12683 28.4429 9.14203C28.4277 9.15723 28.4201 9.17244 28.4201 9.18764C28.0705 9.59811 27.8348 10.0656 27.7132 10.5901C27.5916 11.107 27.5308 11.6239 27.5308 12.1408C27.5308 12.1636 27.5346 12.2016 27.5422 12.2548C27.5498 12.308 27.5574 12.365 27.565 12.4258C27.5802 12.4791 27.5916 12.5323 27.5992 12.5855C27.6144 12.6311 27.622 12.6615 27.622 12.6767C27.6296 12.7755 27.6372 12.8933 27.6448 13.0302C27.66 13.1594 27.6752 13.2962 27.6904 13.4406C27.7132 13.5851 27.7398 13.7257 27.7702 13.8625C27.8006 13.9993 27.8386 14.1172 27.8842 14.216C27.8842 14.2312 27.8956 14.2578 27.9184 14.2958C27.9488 14.3262 27.9754 14.3642 27.9983 14.4098C28.0287 14.4478 28.0553 14.482 28.0781 14.5124C28.1085 14.5428 28.1237 14.5618 28.1237 14.5694C28.1389 14.5846 28.1541 14.6113 28.1693 14.6493C28.1845 14.6873 28.1997 14.7329 28.2149 14.7861C28.2377 14.8317 28.2529 14.8773 28.2605 14.9229C28.2757 14.9609 28.2871 14.9875 28.2947 15.0027C28.3099 15.0331 28.3175 15.0521 28.3175 15.0597C28.3175 15.0749 28.3137 15.0901 28.3061 15.1053C28.3061 15.1205 28.3061 15.1357 28.3061 15.151C28.2985 15.1662 28.2947 15.1776 28.2947 15.1852C28.3023 15.2004 28.3137 15.2156 28.3289 15.2308C28.3517 15.2536 28.3821 15.265 28.4201 15.265C28.6406 15.4474 28.8382 15.6108 29.013 15.7553C29.1879 15.8997 29.3665 16.0251 29.5489 16.1315C29.7314 16.238 29.9328 16.3368 30.1533 16.428C30.3737 16.5116 30.6359 16.5876 30.94 16.656L31.1794 16.7358C31.2479 16.7358 31.3277 16.7206 31.4189 16.6902C31.5177 16.6598 31.6127 16.6218 31.7039 16.5762C31.7952 16.5306 31.8788 16.4774 31.9548 16.4166C32.0308 16.3558 32.0878 16.2912 32.1258 16.2228C32.141 16.2228 32.16 16.1999 32.1828 16.1543C32.2056 16.1011 32.2246 16.0669 32.2398 16.0517L32.2969 15.9947V15.6526C32.2969 15.2194 32.3273 14.7975 32.3881 14.387C32.4489 13.9765 32.4793 13.5661 32.4793 13.1556C32.4793 13.1176 32.4793 13.053 32.4793 12.9617C32.4793 12.8629 32.4717 12.7869 32.4565 12.7337C32.4565 12.7185 32.4337 12.7071 32.3881 12.6995C32.3501 12.6843 32.3197 12.6767 32.2969 12.6767C32.2817 12.6691 32.2322 12.6615 32.1486 12.6539C32.065 12.6463 31.9738 12.6425 31.875 12.6425C31.7838 12.6349 31.6925 12.6273 31.6013 12.6197C31.5101 12.6121 31.4531 12.6045 31.4303 12.5969C31.3011 12.5665 31.168 12.5133 31.0312 12.4372C30.8944 12.3536 30.826 12.2244 30.826 12.0496C30.826 11.9888 30.8412 11.9394 30.8716 11.9013C30.902 11.8633 30.9514 11.8253 31.0198 11.7873H31.3961C31.5937 11.7873 31.7838 11.8063 31.9662 11.8443C32.1562 11.8747 32.3463 11.8899 32.5363 11.8899C32.8176 11.8899 33.095 11.8747 33.3687 11.8443C33.6423 11.8063 33.9236 11.7873 34.2124 11.7873C34.4937 11.7873 34.7673 11.8139 35.0334 11.8671C35.307 11.9127 35.5883 11.9508 35.8771 11.9812C35.9455 12.0192 36.0025 12.0648 36.0482 12.118C36.1014 12.1636 36.128 12.2396 36.128 12.346C36.128 12.3536 36.128 12.365 36.128 12.3802C36.128 12.3954 36.1204 12.403 36.1052 12.403C36.0139 12.5095 35.9037 12.5741 35.7745 12.5969C35.6453 12.6197 35.5161 12.6349 35.3868 12.6425C35.2576 12.6425 35.1284 12.6577 34.9992 12.6881C34.8699 12.7185 34.7597 12.7945 34.6685 12.9161C34.6609 12.9617 34.6457 13.0378 34.6229 13.1442C34.6077 13.2506 34.5887 13.3646 34.5659 13.4862C34.5431 13.6079 34.5241 13.7257 34.5089 13.8397C34.4937 13.9461 34.4861 14.0183 34.4861 14.0563C34.4785 14.0868 34.4671 14.1628 34.4519 14.2844C34.4443 14.406 34.4367 14.5352 34.4291 14.6721C34.4215 14.8089 34.4138 14.9381 34.4062 15.0597C34.3986 15.1738 34.3948 15.2422 34.3948 15.265C34.3948 15.2726 34.3872 15.2916 34.372 15.322C34.3644 15.3448 34.353 15.3714 34.3378 15.4018C34.3302 15.4322 34.3188 15.4626 34.3036 15.493C34.296 15.5158 34.2922 15.531 34.2922 15.5386C34.315 15.5538 34.3492 15.6032 34.3948 15.6869C34.4405 15.7705 34.4709 15.8313 34.4861 15.8693C34.4861 15.8997 34.4975 15.9263 34.5203 15.9491L34.5659 15.9947C34.6267 15.9795 34.6799 15.9605 34.7255 15.9377C34.7635 15.9225 34.8015 15.9073 34.8395 15.8921C34.8775 15.8769 34.9003 15.8693 34.9079 15.8693H35.022C35.1436 15.8693 35.2462 15.8997 35.3298 15.9605C35.4134 16.0213 35.4552 16.1087 35.4552 16.2228V16.3026C35.4552 16.3558 35.4476 16.39 35.4324 16.4052C35.2348 16.542 35.0144 16.6826 34.7711 16.8271C34.5279 16.9639 34.2846 17.0475 34.0414 17.0779C33.9122 17.1083 33.7943 17.1273 33.6879 17.1349C33.5815 17.1349 33.4751 17.1387 33.3687 17.1463C33.2622 17.1539 33.152 17.1729 33.038 17.2033C32.9316 17.2261 32.8099 17.2755 32.6731 17.3516H31.5557C31.0844 17.3516 30.6245 17.3402 30.1761 17.3174C29.7352 17.287 29.2867 17.2071 28.8306 17.0779C28.823 17.0779 28.7964 17.0779 28.7508 17.0779C28.7128 17.0703 28.6672 17.0627 28.614 17.0551C28.5684 17.0475 28.5227 17.0399 28.4771 17.0323C28.4391 17.0247 28.4201 17.0209 28.4201 17.0209C28.4049 17.0133 28.3669 16.9905 28.3061 16.9525C28.2529 16.9145 28.1959 16.8765 28.1351 16.8385C28.0743 16.7929 28.0173 16.7549 27.964 16.7244C27.9184 16.6864 27.8918 16.6636 27.8842 16.656C27.679 16.5268 27.4624 16.3786 27.2343 16.2113C27.0063 16.0441 26.7896 15.8617 26.5844 15.664C26.3791 15.4664 26.1929 15.2574 26.0257 15.0369C25.8585 14.8089 25.7292 14.5732 25.638 14.33C25.6076 14.254 25.5696 14.1476 25.524 14.0107C25.486 13.8663 25.448 13.7181 25.41 13.5661C25.372 13.4064 25.3378 13.2506 25.3073 13.0986C25.2845 12.9465 25.2731 12.8173 25.2731 12.7109V11.4339ZM37.8725 16.9981C37.8725 16.9753 37.8763 16.9411 37.8839 16.8955C37.8915 16.8499 37.8953 16.8119 37.8953 16.7815C37.9713 16.7282 38.0663 16.6864 38.1804 16.656C38.2944 16.6256 38.4122 16.6028 38.5338 16.5876C38.663 16.5724 38.7847 16.561 38.8987 16.5534C39.0127 16.5458 39.1115 16.5344 39.1951 16.5192C39.2027 16.5116 39.2103 16.4926 39.2179 16.4622C39.2255 16.4242 39.2331 16.39 39.2407 16.3596C39.2484 16.3216 39.256 16.2874 39.2636 16.257C39.2712 16.219 39.275 16.1961 39.275 16.1885C39.2902 16.1733 39.2978 16.1467 39.2978 16.1087C39.2978 16.0707 39.294 16.0327 39.2864 15.9947C39.2788 15.9491 39.275 15.9225 39.275 15.9149C39.2902 15.8921 39.3092 15.8617 39.332 15.8237C39.3624 15.7857 39.3776 15.7553 39.3776 15.7325V15.5728C39.3776 15.4588 39.3738 15.36 39.3662 15.2764C39.3586 15.1928 39.3282 15.0825 39.275 14.9457C39.2826 14.8773 39.2864 14.7785 39.2864 14.6493C39.294 14.52 39.3016 14.3718 39.3092 14.2046C39.3168 14.0373 39.3206 13.8587 39.3206 13.6687C39.3282 13.471 39.332 13.2734 39.332 13.0758C39.332 12.6729 39.3244 12.2966 39.3092 11.947C39.3016 11.5973 39.2902 11.3464 39.275 11.1944C39.275 11.126 39.2712 11.0196 39.2636 10.8752C39.2636 10.7307 39.2598 10.5673 39.2522 10.3849C39.2522 10.2024 39.2484 10.0124 39.2407 9.81476C39.2331 9.61712 39.2255 9.42708 39.2179 9.24465C39.2179 9.06221 39.2141 8.90258 39.2065 8.76576C39.2065 8.62133 39.2027 8.51871 39.1951 8.4579C39.1951 8.41989 39.1913 8.37049 39.1837 8.30967C39.1761 8.24126 39.1647 8.17285 39.1495 8.10444C39.1419 8.03602 39.1305 7.97521 39.1153 7.922C39.1077 7.86879 39.1001 7.83459 39.0925 7.81938C39.0545 7.69776 38.9709 7.61794 38.8417 7.57994C38.7201 7.54193 38.5908 7.51533 38.454 7.50012C38.3248 7.47732 38.207 7.44691 38.1005 7.40891C38.0017 7.3633 37.9523 7.27208 37.9523 7.13525C37.9523 7.08204 37.9561 7.03264 37.9637 6.98703C37.9713 6.93382 38.0055 6.89581 38.0663 6.87301C38.0891 6.8578 38.1233 6.8426 38.1689 6.8274C38.2222 6.81219 38.2754 6.79699 38.3286 6.78179C38.3894 6.75898 38.4426 6.74378 38.4882 6.73618C38.5338 6.72098 38.5642 6.70958 38.5794 6.70197H39.1951H39.8109C39.8185 6.70197 39.8413 6.70958 39.8793 6.72478C39.9249 6.73238 39.9705 6.74378 40.0161 6.75898C40.0617 6.76659 40.1073 6.77419 40.1529 6.78179C40.1985 6.78939 40.2289 6.79319 40.2441 6.79319C40.2745 6.78559 40.3392 6.77419 40.438 6.75898C40.5368 6.73618 40.6432 6.71338 40.7572 6.69057C40.8789 6.66777 40.9891 6.64876 41.0879 6.63356C41.1867 6.61836 41.2513 6.60696 41.2817 6.59935H41.7834H42.2281C42.2813 6.60696 42.3421 6.62216 42.4105 6.64496C42.4866 6.66017 42.5588 6.68297 42.6272 6.71338C42.6956 6.74378 42.7526 6.78179 42.7982 6.8274C42.8438 6.87301 42.8666 6.92241 42.8666 6.97562C42.8666 7.08204 42.802 7.16566 42.6728 7.22647C42.5436 7.27968 42.3915 7.32529 42.2167 7.3633C42.0419 7.3937 41.8632 7.42411 41.6808 7.45451C41.506 7.47732 41.3729 7.50772 41.2817 7.54573C41.2133 7.59894 41.1677 7.66355 41.1449 7.73957C41.1297 7.80798 41.0917 7.86119 41.0309 7.8992V8.48071V9.05081C41.0309 9.05841 41.0385 9.10402 41.0537 9.18764C41.0765 9.26365 41.0955 9.30926 41.1107 9.32446V9.42708V9.48409C41.1031 9.48409 41.0879 9.4955 41.0651 9.5183C41.0499 9.5259 41.0385 9.5335 41.0309 9.5411C41.0157 9.57151 41.0043 9.62472 40.9967 9.70073C40.9967 9.77675 40.9929 9.85656 40.9853 9.94018C40.9853 10.0238 40.9815 10.1074 40.9739 10.191C40.9739 10.267 40.9663 10.3202 40.9511 10.3507C40.9891 10.4343 41.0157 10.5407 41.0309 10.6699C41.0537 10.7991 41.0803 10.9208 41.1107 11.0348C41.1107 11.05 41.1145 11.0804 41.1221 11.126C41.1297 11.164 41.1373 11.2096 41.1449 11.2628C41.1601 11.3084 41.1715 11.354 41.1791 11.3997C41.1943 11.4377 41.2019 11.4605 41.2019 11.4681C41.2019 11.4909 41.2057 11.5213 41.2133 11.5593C41.2209 11.5973 41.2323 11.6391 41.2475 11.6847C41.2703 11.7227 41.2931 11.7569 41.3159 11.7873C41.3463 11.8177 41.3805 11.8329 41.4186 11.8329H41.4642C41.8746 11.7721 42.3193 11.7265 42.7982 11.6961C43.2771 11.6657 43.718 11.6505 44.1209 11.6505C44.2121 11.6505 44.2919 11.6695 44.3603 11.7075C44.4363 11.7455 44.5161 11.7645 44.5997 11.7645C44.9114 11.7645 45.2003 11.7455 45.4663 11.7075C45.7324 11.6619 46.0212 11.6429 46.3329 11.6505L46.4925 11.5707C46.4925 11.5555 46.4963 11.4947 46.5039 11.3882C46.5115 11.2818 46.5153 11.1982 46.5153 11.1374C46.5153 11.0994 46.5115 11.0424 46.5039 10.9664C46.5039 10.8904 46.5039 10.8181 46.5039 10.7497C46.5039 10.6737 46.5001 10.6053 46.4925 10.5445C46.4925 10.4837 46.4925 10.4457 46.4925 10.4305C46.4925 10.3849 46.4887 10.2746 46.4811 10.0998C46.4735 9.91737 46.4621 9.72354 46.4469 9.5183C46.4393 9.31306 46.4317 9.12303 46.4241 8.94819C46.4165 8.77336 46.4127 8.66314 46.4127 8.61753V8.08163C46.3899 7.8916 46.3329 7.74717 46.2417 7.64835C46.1504 7.54193 46.0402 7.46592 45.911 7.42031C45.7894 7.3671 45.6601 7.33289 45.5233 7.31769C45.3865 7.29488 45.2573 7.27208 45.1356 7.24928C45.0216 7.22647 44.9266 7.19607 44.8506 7.15806C44.7746 7.12005 44.7366 7.05164 44.7366 6.95282C44.7366 6.8388 44.7822 6.75138 44.8734 6.69057C44.9646 6.62976 45.0634 6.59935 45.1699 6.59935H45.3523C45.3979 6.60696 45.5005 6.61836 45.6601 6.63356C45.8198 6.64876 45.987 6.66777 46.1618 6.69057C46.3367 6.71338 46.5001 6.73618 46.6521 6.75898C46.8118 6.77419 46.9106 6.78559 46.9486 6.79319H46.9828H47.0056C47.074 6.77799 47.1652 6.75898 47.2793 6.73618C47.3933 6.71338 47.5035 6.69437 47.6099 6.67917C47.7239 6.66397 47.8228 6.64876 47.9064 6.63356C47.9976 6.61836 48.0508 6.60696 48.066 6.59935C48.0888 6.59935 48.1192 6.58795 48.1572 6.56515C48.2028 6.53474 48.2332 6.51954 48.2484 6.51954H48.4309H48.6019L48.7615 6.56515C48.7995 6.58035 48.8375 6.59175 48.8755 6.59935C48.9136 6.59935 48.9364 6.59935 48.944 6.59935C48.9668 6.60696 49.02 6.61456 49.1036 6.62216C49.1872 6.62976 49.2784 6.63736 49.3772 6.64496C49.4761 6.65256 49.5635 6.66397 49.6395 6.67917C49.7231 6.68677 49.7725 6.69437 49.7877 6.70197C49.8181 6.70197 49.8561 6.71338 49.9017 6.73618C49.9473 6.75898 49.9702 6.77799 49.9702 6.79319C49.9702 6.8236 49.9778 6.8616 49.993 6.90721C50.0006 6.93762 50.0044 6.96042 50.0044 6.97562C50.0044 6.99083 50.0044 7.01743 50.0044 7.05544C50.0044 7.08585 50.0006 7.12005 49.993 7.15806C49.9854 7.19607 49.974 7.23407 49.9588 7.27208C49.9435 7.30249 49.9207 7.32149 49.8903 7.32909C49.8523 7.32909 49.7877 7.33669 49.6965 7.3519C49.6053 7.3595 49.5103 7.3747 49.4114 7.3975C49.3126 7.41271 49.2176 7.42791 49.1264 7.44311C49.0352 7.45832 48.9744 7.46592 48.944 7.46592C48.7843 7.49632 48.6589 7.56093 48.5677 7.65975C48.4841 7.75097 48.3967 7.86499 48.3054 8.00182C48.2978 8.03982 48.2902 8.10824 48.2826 8.20705C48.275 8.29827 48.2674 8.40089 48.2598 8.51491C48.2598 8.62893 48.256 8.73915 48.2484 8.84557C48.2484 8.94439 48.2484 9.01281 48.2484 9.05081V11.1032V13.1328C48.2484 13.1632 48.2484 13.2202 48.2484 13.3038C48.256 13.3874 48.2598 13.4748 48.2598 13.5661C48.2674 13.6573 48.275 13.7447 48.2826 13.8283C48.2902 13.9119 48.2978 13.9689 48.3054 13.9993C48.3206 14.0069 48.332 14.0221 48.3396 14.0449C48.3549 14.0601 48.3701 14.0754 48.3853 14.0906L48.4309 14.159V14.2502C48.4309 14.311 48.4233 14.3604 48.4081 14.3984C48.4005 14.4364 48.3663 14.482 48.3054 14.5352L48.2484 15.8123C48.2484 15.8351 48.2522 15.8807 48.2598 15.9491C48.275 16.0099 48.2902 16.0555 48.3054 16.0859C48.3282 16.1087 48.3587 16.1429 48.3967 16.1885C48.4423 16.2342 48.4879 16.2798 48.5335 16.3254C48.5867 16.371 48.6399 16.4128 48.6931 16.4508C48.7539 16.4888 48.8109 16.5116 48.8641 16.5192C48.9402 16.5344 49.0352 16.5496 49.1492 16.5648C49.2632 16.58 49.3734 16.6066 49.4799 16.6446C49.5939 16.675 49.6889 16.7244 49.7649 16.7929C49.8485 16.8613 49.8903 16.9563 49.8903 17.0779C49.8903 17.1843 49.8333 17.2641 49.7193 17.3174C49.6129 17.363 49.5179 17.3858 49.4343 17.3858H49.3772C49.362 17.3858 49.3278 17.382 49.2746 17.3744C49.229 17.3668 49.1758 17.3592 49.115 17.3516C49.0618 17.3364 49.0086 17.325 48.9554 17.3174C48.9098 17.3022 48.8793 17.2946 48.8641 17.2946C48.8489 17.2946 48.8071 17.3022 48.7387 17.3174C48.6779 17.325 48.6133 17.3364 48.5449 17.3516C48.4765 17.3592 48.4119 17.3668 48.3511 17.3744C48.2902 17.382 48.256 17.3858 48.2484 17.3858H48.1914H48.1344C48.1116 17.3858 48.047 17.382 47.9406 17.3744C47.8342 17.3668 47.7163 17.3592 47.5871 17.3516C47.4655 17.3364 47.3439 17.325 47.2222 17.3174C47.1082 17.3098 47.036 17.3022 47.0056 17.2946H45.0102C44.9798 17.2946 44.9456 17.287 44.9076 17.2717C44.8696 17.2489 44.8506 17.2299 44.8506 17.2147V17.0779V16.9411C44.9266 16.7891 45.052 16.694 45.2269 16.656C45.4017 16.6104 45.5765 16.5838 45.7514 16.5762C45.9338 16.561 46.0972 16.5496 46.2417 16.542C46.3861 16.5268 46.4697 16.4698 46.4925 16.371C46.4925 16.3178 46.4925 16.2304 46.4925 16.1087C46.5001 15.9795 46.5039 15.8503 46.5039 15.7211C46.5039 15.5842 46.5039 15.455 46.5039 15.3334C46.5115 15.2118 46.5153 15.1281 46.5153 15.0825C46.5153 14.9989 46.5115 14.8887 46.5039 14.7519C46.5039 14.6151 46.5039 14.482 46.5039 14.3528C46.5039 14.216 46.5001 14.0982 46.4925 13.9993C46.4925 13.8929 46.4925 13.8283 46.4925 13.8055C46.4925 13.7903 46.4887 13.7485 46.4811 13.6801C46.4811 13.6117 46.4773 13.5395 46.4697 13.4634C46.4621 13.3798 46.4507 13.3038 46.4355 13.2354C46.4279 13.1594 46.4203 13.1062 46.4127 13.0758C46.3975 12.9693 46.3709 12.8781 46.3329 12.8021C46.3025 12.7261 46.2379 12.6653 46.139 12.6197H44.976H43.7902C43.7598 12.6197 43.6724 12.6235 43.5279 12.6311C43.3911 12.6387 43.2391 12.6501 43.0719 12.6653C42.9046 12.6729 42.745 12.6805 42.593 12.6881C42.4485 12.6957 42.3611 12.6995 42.3307 12.6995H42.1939H41.8974C41.8746 12.6995 41.8366 12.7033 41.7834 12.7109C41.7378 12.7185 41.6846 12.7261 41.6238 12.7337C41.5706 12.7413 41.5174 12.7489 41.4642 12.7565C41.4186 12.7641 41.3843 12.7717 41.3615 12.7793C41.3539 12.7945 41.3387 12.8249 41.3159 12.8705C41.2931 12.9085 41.2817 12.9351 41.2817 12.9503C41.2665 13.0112 41.2475 13.0948 41.2247 13.2012C41.2095 13.3 41.1905 13.4026 41.1677 13.509C41.1525 13.6079 41.1373 13.6991 41.1221 13.7827C41.1145 13.8587 41.1107 13.9043 41.1107 13.9195C41.1107 13.9727 41.1145 14.0563 41.1221 14.1704C41.1297 14.2844 41.1373 14.4098 41.1449 14.5466C41.1525 14.6759 41.1601 14.8013 41.1677 14.9229C41.1829 15.0445 41.1943 15.1434 41.2019 15.2194C41.2019 15.227 41.2057 15.2498 41.2133 15.2878C41.2209 15.3182 41.2285 15.3524 41.2361 15.3904C41.2437 15.4284 41.2513 15.4664 41.2589 15.5044C41.2741 15.5424 41.2817 15.5652 41.2817 15.5728V15.9263V16.0859C41.2817 16.1087 41.2931 16.1581 41.3159 16.2342C41.3387 16.3102 41.3539 16.3558 41.3615 16.371C41.3691 16.371 41.3958 16.3824 41.4414 16.4052C41.4946 16.428 41.5478 16.4584 41.601 16.4964C41.6618 16.5268 41.7188 16.561 41.772 16.599C41.8252 16.637 41.867 16.6712 41.8974 16.7016C41.9583 16.7396 42.0533 16.7587 42.1825 16.7587C42.3117 16.7587 42.4409 16.7625 42.5702 16.7701C42.6994 16.7777 42.8134 16.8005 42.9122 16.8385C43.0111 16.8765 43.0605 16.9487 43.0605 17.0551C43.0605 17.1235 43.0453 17.1729 43.0149 17.2033C42.9844 17.2261 42.9274 17.2565 42.8438 17.2946C42.6234 17.325 42.4105 17.344 42.2053 17.3516C42.0077 17.3516 41.8062 17.3516 41.601 17.3516H40.6204H39.8451C39.7843 17.3516 39.6778 17.3516 39.5258 17.3516C39.3814 17.3592 39.2217 17.363 39.0469 17.363C38.8797 17.3706 38.7201 17.3744 38.568 17.3744C38.416 17.382 38.3096 17.3858 38.2488 17.3858C38.226 17.3858 38.1956 17.3782 38.1575 17.363C38.1195 17.3554 38.0815 17.344 38.0435 17.3288C38.0055 17.306 37.9713 17.287 37.9409 17.2717C37.9105 17.2489 37.8953 17.2299 37.8953 17.2147C37.8877 17.1843 37.8839 17.1539 37.8839 17.1235C37.8763 17.0931 37.8725 17.0513 37.8725 16.9981ZM54.6792 17.2717C54.6792 17.1729 54.702 17.0969 54.7476 17.0437C54.7933 16.9829 54.8503 16.9335 54.9187 16.8955C54.9947 16.8575 55.1049 16.8271 55.2493 16.8043C55.3938 16.7739 55.5382 16.7434 55.6826 16.713C55.8346 16.675 55.9677 16.6294 56.0817 16.5762C56.1957 16.5154 56.2641 16.4318 56.2869 16.3254V16.0859V15.9719C56.2869 15.9187 56.2869 15.8009 56.2869 15.6184C56.2945 15.4284 56.2983 15.2118 56.2983 14.9685C56.3059 14.7177 56.3135 14.4516 56.3211 14.1704C56.3287 13.8891 56.3325 13.6231 56.3325 13.3722C56.3401 13.1214 56.3439 12.9047 56.3439 12.7223C56.3515 12.5323 56.3553 12.4068 56.3553 12.346V10.3735V8.41229C56.3173 8.27547 56.2261 8.15765 56.0817 8.05883C55.9449 7.95241 55.8004 7.8992 55.6484 7.8992H54.1889C54.1357 7.8992 54.0597 7.922 53.9609 7.96761C53.8621 8.01322 53.7937 8.04362 53.7557 8.05883C53.4668 8.23366 53.235 8.4237 53.0601 8.62893C52.8853 8.82657 52.7105 9.04321 52.5356 9.27886C52.5204 9.29406 52.4976 9.32066 52.4672 9.35867C52.4444 9.39668 52.4178 9.44229 52.3874 9.4955C52.3646 9.5411 52.338 9.58671 52.3076 9.63232C52.2848 9.67033 52.2696 9.69693 52.262 9.71214C52.2468 9.75014 52.2202 9.79955 52.1822 9.86036C52.1442 9.92117 52.1024 9.98199 52.0567 10.0428C52.0111 10.1036 51.9617 10.1568 51.9085 10.2024C51.8629 10.248 51.8211 10.2708 51.7831 10.2708C51.7071 10.2708 51.6425 10.2518 51.5893 10.2138C51.5436 10.1758 51.5056 10.1264 51.4752 10.0656C51.4524 10.0048 51.4334 9.94018 51.4182 9.87177C51.4106 9.79575 51.4068 9.72354 51.4068 9.65513C51.4068 9.48789 51.422 9.32826 51.4524 9.17624C51.4828 9.02421 51.5132 8.86458 51.5436 8.69735C51.5665 8.59853 51.5893 8.4465 51.6121 8.24126C51.6425 8.02842 51.6805 7.81938 51.7261 7.61414C51.7717 7.4013 51.8363 7.21507 51.9199 7.05544C52.0035 6.89581 52.1176 6.816 52.262 6.816C52.2696 6.816 52.2848 6.8198 52.3076 6.8274C52.3304 6.8274 52.3494 6.8274 52.3646 6.8274C52.3874 6.835 52.4102 6.8388 52.433 6.8388C52.4558 6.854 52.5014 6.88061 52.5698 6.91861C52.6383 6.94902 52.7105 6.98323 52.7865 7.02123C52.8701 7.05924 52.9461 7.09345 53.0145 7.12385C53.0829 7.15426 53.1247 7.16946 53.1399 7.16946C53.1475 7.17706 53.1704 7.18466 53.2084 7.19227C53.254 7.19227 53.2996 7.19227 53.3452 7.19227C53.3984 7.19227 53.4478 7.19227 53.4934 7.19227C53.539 7.19227 53.5694 7.19227 53.5846 7.19227C53.5846 7.19227 53.6036 7.19987 53.6416 7.21507C53.6872 7.22267 53.7329 7.23407 53.7785 7.24928C53.8317 7.26448 53.8773 7.27968 53.9153 7.29488C53.9609 7.30249 53.9875 7.30629 53.9951 7.30629C54.3752 7.30629 54.7514 7.27208 55.1239 7.20367C55.504 7.12765 55.8841 7.08965 56.2641 7.08965C56.9331 7.08965 57.5944 7.12765 58.2481 7.20367C58.9094 7.27208 59.5707 7.30629 60.2321 7.30629H60.8136C60.8288 7.29869 60.8668 7.28728 60.9276 7.27208C60.9884 7.24928 61.053 7.23027 61.1214 7.21507C61.1898 7.19227 61.2583 7.16946 61.3267 7.14666C61.3951 7.12385 61.4445 7.10485 61.4749 7.08965C61.5433 7.06684 61.6003 7.04024 61.6459 7.00983C61.6915 6.97182 61.7334 6.93382 61.7714 6.89581C61.817 6.8578 61.8664 6.8274 61.9196 6.80459C61.9728 6.77419 62.0412 6.75898 62.1248 6.75898C62.2693 6.75898 62.3833 6.8274 62.4669 6.96422C62.5581 7.09345 62.6265 7.24928 62.6721 7.43171C62.7253 7.61414 62.7633 7.80038 62.7861 7.99041C62.8166 8.17285 62.8508 8.31347 62.8888 8.41229C62.9192 8.57192 62.9648 8.73535 63.0256 8.90258C63.094 9.06982 63.1282 9.24465 63.1282 9.42708C63.1282 9.48029 63.1206 9.5411 63.1054 9.60952C63.0978 9.67793 63.0788 9.74254 63.0484 9.80335C63.018 9.85656 62.9762 9.90217 62.923 9.94018C62.8698 9.97819 62.8052 9.99719 62.7291 9.99719C62.6531 9.99719 62.5619 9.94018 62.4555 9.82616C62.3491 9.70453 62.235 9.57151 62.1134 9.42708C61.9994 9.27505 61.8854 9.12683 61.7714 8.9824C61.6649 8.83797 61.5661 8.74295 61.4749 8.69735C61.4597 8.68975 61.4255 8.67074 61.3723 8.64034C61.3267 8.60993 61.2735 8.57952 61.2127 8.54912C61.1594 8.51871 61.1062 8.49211 61.053 8.4693C61.0074 8.4389 60.977 8.41989 60.9618 8.41229C60.8174 8.32868 60.6768 8.23746 60.5399 8.13864C60.4107 8.03982 60.2663 7.96001 60.1066 7.8992C60.0838 7.8992 60.042 7.8992 59.9812 7.8992C59.928 7.8992 59.871 7.8992 59.8102 7.8992C59.7494 7.8916 59.6924 7.8878 59.6392 7.8878C59.5936 7.8878 59.5593 7.8878 59.5365 7.8878H59.3199C59.1603 7.8878 58.9968 7.8992 58.8296 7.922C58.6624 7.94481 58.537 8.01702 58.4533 8.13864C58.4533 8.19945 58.4571 8.29447 58.4647 8.4237C58.4723 8.55292 58.4761 8.69355 58.4761 8.84557C58.4761 8.9976 58.4723 9.13823 58.4647 9.26745C58.4571 9.39668 58.4533 9.48789 58.4533 9.5411C58.4533 9.55631 58.4457 9.58291 58.4305 9.62092C58.4229 9.65132 58.4115 9.68553 58.3963 9.72354C58.3811 9.76155 58.3659 9.79955 58.3507 9.83756C58.3431 9.86797 58.3355 9.88697 58.3279 9.89457V13.3722C58.2595 13.509 58.2177 13.6155 58.2025 13.6915C58.1873 13.7675 58.1797 13.8701 58.1797 13.9993V14.1704C58.1797 14.1856 58.1835 14.2198 58.1911 14.273C58.2063 14.3186 58.2177 14.3718 58.2253 14.4326C58.2405 14.4858 58.2519 14.539 58.2595 14.5922C58.2671 14.6379 58.2709 14.6683 58.2709 14.6835V15.9719C58.2937 16.1315 58.3317 16.2722 58.3849 16.3938C58.4381 16.5154 58.5522 16.5838 58.727 16.599C58.7574 16.6066 58.8182 16.6142 58.9094 16.6218C59.0082 16.6294 59.1109 16.637 59.2173 16.6446C59.3313 16.6522 59.4377 16.6598 59.5365 16.6674C59.643 16.675 59.7152 16.6788 59.7532 16.6788C59.8064 16.7168 59.8482 16.7701 59.8786 16.8385C59.9166 16.8993 59.9356 16.9639 59.9356 17.0323C59.9356 17.0931 59.9204 17.1387 59.89 17.1691C59.8672 17.1995 59.8216 17.2413 59.7532 17.2946C59.3807 17.287 58.9854 17.2908 58.5674 17.306C58.1569 17.3136 57.7388 17.325 57.3131 17.3402C56.895 17.3478 56.4808 17.3554 56.0703 17.363C55.6598 17.3782 55.2759 17.3858 54.9187 17.3858C54.8579 17.3858 54.8009 17.382 54.7476 17.3744C54.702 17.3668 54.6792 17.3326 54.6792 17.2717Z" fill="white"/>
</svg>
